<?xml version="1.0" encoding="UTF-8" standalone="no"?>
<svg
   xmlns:dc="http://purl.org/dc/elements/1.1/"
   xmlns:cc="http://creativecommons.org/ns#"
   xmlns:rdf="http://www.w3.org/1999/02/22-rdf-syntax-ns#"
   xmlns:svg="http://www.w3.org/2000/svg"
   xmlns="http://www.w3.org/2000/svg"
   xmlns:sodipodi="http://sodipodi.sourceforge.net/DTD/sodipodi-0.dtd"
   xmlns:inkscape="http://www.inkscape.org/namespaces/inkscape"
   inkscape:version="1.0 (4035a4f, 2020-05-01)"
   sodipodi:docname="image1.svg"
   viewBox="0 0 2560 1440"
   height="1440"
   width="2560"
   xml:space="preserve"
   id="svg28"
   version="1.1"><metadata
     id="metadata34"><rdf:RDF><cc:Work
         rdf:about=""><dc:format>image/svg+xml</dc:format><dc:type
           rdf:resource="http://purl.org/dc/dcmitype/StillImage" /><dc:title></dc:title></cc:Work></rdf:RDF></metadata><defs
     id="defs32"><clipPath
       id="clipPath46"
       clipPathUnits="userSpaceOnUse"><path
         id="path44"
         d="M 0,0 H 1920 V 1080 H 0 Z" /></clipPath></defs><sodipodi:namedview
     inkscape:current-layer="g36"
     inkscape:window-maximized="0"
     inkscape:window-y="0"
     inkscape:window-x="0"
     inkscape:cy="720"
     inkscape:cx="1280"
     inkscape:zoom="0.33263889"
     showgrid="false"
     id="namedview30"
     inkscape:window-height="800"
     inkscape:window-width="1280"
     inkscape:pageshadow="2"
     inkscape:pageopacity="0"
     guidetolerance="10"
     gridtolerance="10"
     objecttolerance="10"
     borderopacity="1"
     bordercolor="#666666"
     pagecolor="#ffffff" /><g
     transform="matrix(1.3333333,0,0,-1.3333333,0,1440)"
     inkscape:label="image1"
     inkscape:groupmode="layer"
     id="g36"><g
       id="g38" /><g
       id="g40"><g
         clip-path="url(#clipPath46)"
         id="g42"><path
           id="path48"
           style="fill:#ffffff;fill-opacity:1;fill-rule:nonzero;stroke:none"
           d="M 0,1080 H 1920 V 0 H 0 Z" /><path
           id="path50"
           style="fill:#000000;fill-opacity:1;fill-rule:nonzero;stroke:none"
           d="m 134.5975,737.915 c -2.3408,0 -4.28,-1.9392 -4.2801,-4.28 V 605.6378 c 0,-2.3409 1.9393,-4.2957 4.2801,-4.2957 h 80.0916 l -0.2957,-1.1828 -3.3462,-16.7467 h -9.8052 v -6.2256 h 25.7893 5.7275 25.8049 v 6.2256 h -9.8053 l -3.3462,16.7467 -0.249,1.1828 h 80.0449 c 2.3408,0 4.28,1.9549 4.2801,4.2957 V 733.635 c 0.0498,2.3408 -1.8926,4.28 -4.2334,4.28 z m 95.3287,-4.031 c 1.0458,0 1.8988,-0.8031 1.8987,-1.8988 0,-1.0459 -0.8529,-1.8988 -1.8987,-1.8988 -1.0459,0 -1.8988,0.8529 -1.8988,1.8988 0,1.0459 0.8529,1.8988 1.8988,1.8988 z m -88.1538,-8.8714 H 318.0799 V 624.5634 H 141.7724 Z" /><g
           transform="matrix(1,0,0,-1,415.2041,738.9116)"
           id="g52"><path
             id="path54"
             style="fill:none;stroke:#000000;stroke-width:1;stroke-linecap:butt;stroke-linejoin:miter;stroke-miterlimit:4;stroke-dasharray:none;stroke-opacity:1"
             d="M 44,85.88418 V 130.1275 L 0,65.06377 44,0 V 44.24337 H 253.7976 V 0 l 44,65.06377 -44,65.06373 V 85.88418 Z" /></g><path
           id="path56"
           style="fill:#000000;fill-opacity:1;fill-rule:nonzero;stroke:none"
           d="m 1629.223,737.915 c -2.34,0 -4.28,-1.9392 -4.28,-4.28 V 605.6378 c 0,-2.3409 1.94,-4.2957 4.28,-4.2957 h 80.092 l -0.296,-1.1828 -3.346,-16.7467 h -9.805 v -6.2256 h 25.789 5.728 25.805 v 6.2256 h -9.806 l -3.346,16.7467 -0.249,1.1828 h 80.045 c 2.341,0 4.28,1.9549 4.28,4.2957 V 733.635 c 0.05,2.3408 -1.893,4.28 -4.233,4.28 z m 95.329,-4.031 c 1.046,0 1.899,-0.8031 1.899,-1.8988 0,-1.0459 -0.853,-1.8988 -1.899,-1.8988 -1.046,0 -1.899,0.8529 -1.899,1.8988 0,1.0459 0.853,1.8988 1.899,1.8988 z m -88.154,-8.8714 h 176.308 V 624.5634 h -176.308 z" /><g
           transform="translate(512.1069,665.5078)"
           id="g58"><text
             id="text62"
             style="font-variant:normal;font-weight:normal;font-size:24px;font-family:'PingFang SC';-inkscape-font-specification:PingFangSC-Regular;writing-mode:lr-tb;fill:#5e5e5e;fill-opacity:1;fill-rule:nonzero;stroke:none"
             transform="scale(1,-1)"><tspan
               id="tspan60"
               sodipodi:role="line"
               y="0"
               x="0 24">请求</tspan></text></g><g
           transform="translate(512.1069,665.5078)"
           id="g64"><text
             id="text68"
             style="font-variant:normal;font-weight:normal;font-size:24px;font-family:'Helvetica Neue';-inkscape-font-specification:HelveticaNeue;writing-mode:lr-tb;fill:#5e5e5e;fill-opacity:1;fill-rule:nonzero;stroke:none"
             transform="matrix(1,0,0,-1,48,0)"><tspan
               id="tspan66"
               y="0"
               x="0">/</tspan></text></g><g
           transform="translate(512.1069,665.5078)"
           id="g70"><text
             id="text74"
             style="font-variant:normal;font-weight:normal;font-size:24px;font-family:'PingFang SC';-inkscape-font-specification:PingFangSC-Regular;writing-mode:lr-tb;fill:#5e5e5e;fill-opacity:1;fill-rule:nonzero;stroke:none"
             transform="matrix(1,0,0,-1,55.992,0)"><tspan
               id="tspan72"
               sodipodi:role="line"
               y="0"
               x="0 24">响应</tspan></text></g><g
           transform="matrix(1,0,0,-1,1226.293,738.9116)"
           id="g76"><path
             id="path78"
             style="fill:none;stroke:#000000;stroke-width:1;stroke-linecap:butt;stroke-linejoin:miter;stroke-miterlimit:4;stroke-dasharray:none;stroke-opacity:1"
             d="M 44,85.88418 V 130.1275 L 0,65.06377 44,0 V 44.24337 H 253.7976 V 0 l 44,65.06377 -44,65.06373 V 85.88418 Z" /></g><g
           transform="translate(1323.195,665.5078)"
           id="g80"><text
             id="text84"
             style="font-variant:normal;font-weight:normal;font-size:24px;font-family:'PingFang SC';-inkscape-font-specification:PingFangSC-Regular;writing-mode:lr-tb;fill:#5e5e5e;fill-opacity:1;fill-rule:nonzero;stroke:none"
             transform="scale(1,-1)"><tspan
               id="tspan82"
               sodipodi:role="line"
               y="0"
               x="0 24">请求</tspan></text></g><g
           transform="translate(1323.195,665.5078)"
           id="g86"><text
             id="text90"
             style="font-variant:normal;font-weight:normal;font-size:24px;font-family:'Helvetica Neue';-inkscape-font-specification:HelveticaNeue;writing-mode:lr-tb;fill:#5e5e5e;fill-opacity:1;fill-rule:nonzero;stroke:none"
             transform="matrix(1,0,0,-1,48,0)"><tspan
               id="tspan88"
               y="0"
               x="0">/</tspan></text></g><g
           transform="translate(1323.195,665.5078)"
           id="g92"><text
             id="text96"
             style="font-variant:normal;font-weight:normal;font-size:24px;font-family:'PingFang SC';-inkscape-font-specification:PingFangSC-Regular;writing-mode:lr-tb;fill:#5e5e5e;fill-opacity:1;fill-rule:nonzero;stroke:none"
             transform="matrix(1,0,0,-1,55.992,0)"><tspan
               id="tspan94"
               sodipodi:role="line"
               y="0"
               x="0 24">响应</tspan></text></g><path
           id="path98"
           style="fill:#00a1ff;fill-opacity:1;fill-rule:nonzero;stroke:none"
           d="m 859.4476,775.6274 c 19.5262,-19.5262 19.5262,-51.1844 0,-70.7106 -19.5262,-19.5262 -51.1845,-19.5262 -70.7107,0 -19.5262,19.5262 -19.5262,51.1844 0,70.7106 19.5262,19.5263 51.1845,19.5263 70.7107,0 z" /><path
           id="path100"
           style="fill:#00a1ff;fill-opacity:1;fill-rule:nonzero;stroke:none"
           d="m 1165.502,775.6274 c 19.526,-19.5262 19.526,-51.1844 0,-70.7106 -19.526,-19.5262 -51.184,-19.5262 -70.711,0 -19.526,19.5262 -19.526,51.1844 0,70.7106 19.527,19.5263 51.185,19.5263 70.711,0 z" /><path
           id="path102"
           style="fill:#00a1ff;fill-opacity:1;fill-rule:nonzero;stroke:none"
           d="m 1010.06,542.7023 c 19.526,-19.5263 19.526,-51.1845 0,-70.7107 -19.5264,-19.5262 -51.1847,-19.5262 -70.7109,0 -19.5262,19.5262 -19.5262,51.1844 0,70.7107 19.5262,19.5262 51.1845,19.5262 70.7109,0 z" /><g
           transform="matrix(0.5981918,-0.801353,-0.801353,-0.5981918,849.8969,689.2457)"
           id="g104"><path
             id="path106"
             style="fill:none;stroke:#000000;stroke-width:3;stroke-linecap:butt;stroke-linejoin:miter;stroke-miterlimit:4;stroke-dasharray:none;stroke-opacity:1"
             d="m 11.7,0 h 1.5 139.3729 1.5" /></g><path
           id="path108"
           style="fill:#000000;fill-opacity:1;fill-rule:nonzero;stroke:none"
           d="m 935.8759,563.0328 13.185,-6.6298 -2.6072,14.526 z" /><path
           id="path110"
           style="fill:#000000;fill-opacity:1;fill-rule:nonzero;stroke:none"
           d="m 863.082,682.6159 -13.1851,6.6298 2.6072,-14.5259 z" /><g
           transform="matrix(1,3.009842e-5,3.009842e-5,-1,877.5619,740.2691)"
           id="g112"><path
             id="path114"
             style="fill:none;stroke:#000000;stroke-width:3;stroke-linecap:butt;stroke-linejoin:miter;stroke-miterlimit:4;stroke-dasharray:none;stroke-opacity:1"
             d="m 11.7,0 h 1.5 172.7717 1.5" /></g><path
           id="path116"
           style="fill:#000000;fill-opacity:1;fill-rule:nonzero;stroke:none"
           d="m 1063.534,733.6747 13.2,6.6004 -13.201,6.5996 v -13.2 z" /><path
           id="path118"
           style="fill:#000000;fill-opacity:1;fill-rule:nonzero;stroke:none"
           d="m 890.7617,746.8695 -13.1998,-6.6004 13.2002,-6.5996 z" /><g
           transform="matrix(1,0,0,-1,860.4142,844.4636)"
           id="g120"><path
             id="path122"
             style="fill:none;stroke:#000000;stroke-width:3;stroke-linecap:butt;stroke-linejoin:miter;stroke-miterlimit:4;stroke-dasharray:none;stroke-opacity:1"
             d="M 7.776653,46.82392 8.77366,45.70322 C 38.20376,15.40304 79.19788,-1.313139 121.8186,0.08071976 160.9021,1.3589 197.756,17.83044 224.7131,45.68515 l 0.9951,1.12304" /></g><path
           id="path124"
           style="fill:#000000;fill-opacity:1;fill-rule:nonzero;stroke:none"
           d="m 1080.188,794.4013 13.693,-5.5032 -3.813,14.2568 z" /><path
           id="path126"
           style="fill:#000000;fill-opacity:1;fill-rule:nonzero;stroke:none"
           d="m 864.2567,803.1472 -3.8425,-14.2491 13.7047,5.4754 z" /></g></g></g></svg>
